<svg xmlns="http://www.w3.org/2000/svg" width="50" height="50" viewBox="0 0 50 50">
    <path style="text-indent:0;text-align:start;line-height:normal;text-transform:none;block-progression:tb;-inkscape-font-specification:Bitstream Vera Sans" d="M 25 2 C 12.318 2 2 12.318 2 25 C 2 37.683 12.318 48 25 48 C 37.683 48 48 37.683 48 25 C 48 12.318 37.683 2 25 2 z M 28.125 12.9375 C 31.736875 12.97375 34.999 14.009 36.5 14.875 C 33.368 19.092 34.6675 26.39125 31.1875 31.28125 C 27.9315 35.85725 21.875 36.125 21.875 36.125 L 21.71875 36.125 C 21.67375 38.119 21.79475 40.03075 22.09375 41.59375 C 22.19775 42.13575 21.8555 42.645 21.3125 42.75 C 21.2495 42.762 21.187 42.78125 21.125 42.78125 C 20.655 42.78125 20.24725 42.44875 20.15625 41.96875 A 1.0001 1.0001 0 0 0 20.125 41.75 A 1.0001 1.0001 0 0 0 20.09375 41.59375 C 20.08447 41.545258 20.071477 41.486854 20.0625 41.4375 C 20.010518 41.123575 19.947144 40.800691 19.90625 40.46875 C 19.863984 40.125667 19.842515 39.76557 19.8125 39.40625 C 19.796127 39.210246 19.793882 39.012632 19.78125 38.8125 C 19.757687 38.439182 19.728963 38.072707 19.71875 37.6875 C 19.705141 37.174188 19.70775 36.65275 19.71875 36.125 C 19.803588 32.725919 20.422359 29.004481 21.8125 26.34375 C 24.563265 21.081459 28.40625 19.21875 28.40625 19.21875 A 1.0001 1.0001 0 0 0 27.875 17.3125 A 1.0001 1.0001 0 0 0 27.5 17.4375 C 27.5 17.4375 23.052485 19.657791 20.03125 25.4375 C 18.521978 28.326248 17.852002 31.942667 17.71875 35.34375 C 15.497043 33.064459 9.612792 25.638465 17.625 17.03125 C 20.5545 13.88425 24.513125 12.90125 28.125 12.9375 z" color="#000" overflow="visible" enable-background="accumulate" font-family="Bitstream Vera Sans"></path>
</svg>