<svg xmlns="http://www.w3.org/2000/svg" width="22" height="19" viewBox="0 0 22 19" xmlns:xlink="http://www.w3.org/1999/xlink"><defs><path id="a" d="M4 6c0-1 1-2 2-2h6c1 0 2 1 2 2l.8 10.2c0 1-.7 2-1.8 2H6c-1 0-2-1-2-2V6z"/><mask id="c" width="10.8" height="14.1" x="0" y="0" fill="#fff"><use xlink:href="#a"/></mask><path id="b" d="M5 10C2.2 10 0 8 0 5c0-2.7 2.2-5 5-5 2.7 0 5 2.3 5 5"/><mask id="d" width="10" height="10.1" x="0" y="0" fill="#fff"><use xlink:href="#b"/></mask></defs><g fill="none" fill-rule="evenodd"><use stroke="#000" stroke-width="4" mask="url(#c)" xlink:href="#a"/><use stroke="#000" stroke-width="4" mask="url(#d)" xlink:href="#b"/><path fill="#000" d="M16 3.7c0-1.5.8-2 1.8-.8L21 6c1 1 .8 2-.7 2H16V3.6z"/><path fill="#000" d="M16.6 6L18 7.6l-4 4-1.3-1.4z"/></g></svg>