<svg xmlns="http://www.w3.org/2000/svg" width="24" height="23" viewBox="-2 -2 24 23" xmlns:xlink="http://www.w3.org/1999/xlink"><defs><path id="a" d="M0 2c0-1 1-2 2-2h6c1 0 2 1 2 2l.8 10.2c0 1-.7 2-1.8 2H2c-1 0-2-1-2-2V2z"/><path id="c" d="M5 10c-2.8 0-5-2-5-5 0-2.7 2.2-5 5-5 2.7 0 5 2.3 5 5"/></defs><g fill="none" fill-rule="evenodd"><g transform="translate(4 4)"><mask id="b" fill="#fff"><use xlink:href="#a"/></mask><use fill="#000" xlink:href="#a"/><path stroke="#000" stroke-width="4" d="M0 2c0-1 1-2 2-2h6c1 0 2 1 2 2l.8 10.2c0 1-.7 2-1.8 2H2c-1 0-2-1-2-2V2z" mask="url(#b)"/></g><mask id="d" fill="#fff"><use xlink:href="#c"/></mask><path stroke="#000" stroke-width="4" d="M5 10c-2.8 0-5-2-5-5 0-2.7 2.2-5 5-5 2.7 0 5 2.3 5 5" mask="url(#d)"/><path fill="#000" fill-rule="nonzero" d="M16 3.7c0-1.5.8-2 1.8-.8L21 6c1 1 .8 2-.7 2H16V3.6z"/><path fill="#000" fill-rule="nonzero" d="M16.6 6L18 7.6l-4 4-1.3-1.4"/></g></svg>