<?xml version="1.0" standalone="no"?>
<!DOCTYPE svg PUBLIC "-//W3C//DTD SVG 20010904//EN"
 "http://www.w3.org/TR/2001/REC-SVG-20010904/DTD/svg10.dtd">
<svg version="1.0" xmlns="http://www.w3.org/2000/svg"
 width="16.000000pt" height="16.000000pt" viewBox="0 0 16.000000 16.000000"
 preserveAspectRatio="xMidYMid meet">
<metadata>
Created by potrace 1.11, written by Peter Selinger 2001-2013
</metadata>
<g transform="translate(0.000000,16.000000) scale(0.002286,-0.002286)"
fill="#000000" stroke="none">
<path d="M2403 5692 l-1092 -437 -352 -845 c-194 -465 -359 -860 -366 -878
l-13 -33 151 3 152 3 26 68 26 67 42 0 43 0 0 -1385 0 -1385 1173 2 c697 2
906 4 515 5 l-658 3 0 1015 0 1015 1450 0 1450 0 0 -1015 0 -1015 -657 -3
c-392 -1 -183 -3 515 -5 l1172 -2 0 1385 0 1385 43 0 42 0 26 -67 26 -68 152
-3 151 -3 -13 33 c-7 18 -172 413 -366 878 l-352 845 -1082 432 c-595 238
-1089 435 -1097 437 -8 3 -506 -192 -1107 -432z m1677 -1317 l0 -575 -580 0
-580 0 0 575 0 575 580 0 580 0 0 -575z"/>
<path d="M3200 4375 l0 -295 300 0 300 0 0 295 0 295 -300 0 -300 0 0 -295z"/>
<path d="M2330 1953 l0 -678 433 650 c239 358 442 662 451 678 l18 27 -451 0
-451 0 0 -677z"/>
<path d="M3786 2603 c9 -16 212 -320 451 -678 l433 -650 0 678 0 677 -451 0
-451 0 18 -27z"/>
<path d="M2983 1734 c-205 -308 -373 -563 -373 -567 0 -4 167 -7 370 -7 287 0
372 3 375 13 3 6 4 261 3 566 l-3 554 -372 -559z"/>
<path d="M3642 1730 l3 -565 374 -3 c319 -2 372 0 368 12 -6 15 -723 1094
-738 1111 -5 5 -8 -226 -7 -555z"/>
</g>
</svg>
